<svg fill="none" xmlns="http://www.w3.org/2000/svg" viewBox="0 0 223 223"><path d="M111.5 111.589v110.297h110.298V111.589H111.5Z" stroke="#4C57C5" stroke-opacity=".6" stroke-miterlimit="10"/><path d="m166.616 111.49-55.175 55.175 55.175 55.175 55.175-55.175-55.175-55.175ZM1.203 1.291V111.59H111.5V1.291H1.203Z" stroke="#4C57C5" stroke-opacity=".6" stroke-miterlimit="10"/><path d="M56.382 1.048 1.207 56.223l55.175 55.174 55.174-55.175L56.382 1.048ZM111.355 111.589H1.058v110.297h110.297V111.589Z" stroke="#4C57C5" stroke-opacity=".6" stroke-miterlimit="10"/><path d="m111.35 166.662-55.175-55.175L1 166.662l55.175 55.174 55.175-55.174ZM221.653 1H111.356v110.297h110.297V1Z" stroke="#4C57C5" stroke-opacity=".6" stroke-miterlimit="10"/><path d="M222 56.22 166.825 1.044l-55.174 55.174 55.174 55.175L222 56.219Z" stroke="#4C57C5" stroke-opacity=".6" stroke-miterlimit="10"/></svg>